<?xml version="1.0" encoding="UTF-8" standalone="no"?>
<svg
   version="1.1"
   width="76"
   height="76"
   viewBox="0 0 76.00 76.00"
   enable-background="new 0 0 76.00 76.00"
   xml:space="preserve"
   id="svg20"
   sodipodi:docname="appbar.audio.gallery.svg"
   inkscape:version="1.1 (c4e8f9e, 2021-05-24)"
   xmlns:inkscape="http://www.inkscape.org/namespaces/inkscape"
   xmlns:sodipodi="http://sodipodi.sourceforge.net/DTD/sodipodi-0.dtd"
   xmlns="http://www.w3.org/2000/svg"
   xmlns:svg="http://www.w3.org/2000/svg"><defs
   id="defs24" /><sodipodi:namedview
   id="namedview22"
   pagecolor="#ffffff"
   bordercolor="#666666"
   borderopacity="1.0"
   inkscape:pageshadow="2"
   inkscape:pageopacity="0.0"
   inkscape:pagecheckerboard="0"
   showgrid="false"
   inkscape:zoom="8.2236842"
   inkscape:cx="25.4144"
   inkscape:cy="29.7312"
   inkscape:window-width="1310"
   inkscape:window-height="847"
   inkscape:window-x="0"
   inkscape:window-y="25"
   inkscape:window-maximized="0"
   inkscape:current-layer="svg20" />
	<path
   fill="#000000"
   fill-opacity="1"
   stroke-linejoin="round"
   d="m 22,19 h 32 v 3 h 7 v 30 h -7 v 5 H 22 V 54 H 17 V 24 h 5 z m 3,3.0001 V 48 H 51 V 22 Z m -5,5 V 45 h 2 V 27.0001 Z M 54,43 h 3.9999 V 25 H 54 Z"
   id="path18"
   sodipodi:nodetypes="cccccccccccccccccccccccccccc" />
<path
   fill="#000000"
   fill-opacity="1"
   stroke-linejoin="round"
   d="m 37.7948,25.414005 h 0.2632 c 0,0 9.87,0 9.87,10.528 0,4.7376 -1.0528,6.3168 -1.5792,6.8432 0,0 -1.5792,1.0528 -1.052852,-0.3948 0,-1.217984 0.526452,-3.8164 0.526452,-3.8164 0,0 0.5264,0 0.5264,-2.632 0,-3.1584 -2.1056,-8.6856 -7.896,-8.6856 H 37.4 c -5.7904,0 -7.896,5.5272 -7.896,8.6856 0,2.632 0.5264,2.632 0.5264,2.632 0,0 0.526452,2.598416 0.526452,3.8164 0.526348,1.4476 -1.052852,0.3948 -1.052852,0.3948 -0.5264,-0.5264 -1.5792,-2.1056 -1.5792,-6.8432 0,-10.528 9.87,-10.528 9.87,-10.528 z m -5.893942,10.61512 c 0.863664,-0.121388 1.662212,0.480393 1.7836,1.344057 l 0.805866,5.734023 c 0.121388,0.863664 -0.48034,1.662213 -1.344058,1.7836 -0.863664,0.121389 -1.925412,-0.48034 -2.0468,-1.344056 L 30.2936,37.812726 c -0.121388,-0.863664 0.743592,-1.662213 1.607258,-1.783601 z m 12.051084,0 c 0.863666,0.121388 1.728646,0.919937 1.607258,1.783601 l -0.805866,5.734023 c -0.121388,0.863716 -1.183136,1.465445 -2.0468,1.344056 -0.863718,-0.121387 -1.465446,-0.919936 -1.344058,-1.7836 l 0.805866,-5.734023 c 0.121388,-0.863664 0.919936,-1.465445 1.7836,-1.344057 z"
   id="path26"
   style="stroke-width:0.5264" /></svg>
